<svg xmlns="http://www.w3.org/2000/svg" viewBox="0 0 211.5 79.1"><defs><style>.cls-1{fill:#fff;}</style></defs><title>Logo_vilniaus_universitetas-33.ai.ps.svg</title><g id="Layer_2" data-name="Layer 2"><g id="Layer_1-2" data-name="Layer 1"><g id="_Group_" data-name="&lt;Group&gt;"><g id="_Group_2" data-name="&lt;Group&gt;"><path class="cls-1" d="M3,49.68l3.67-.73-.14-.71L2.88,49a1.21,1.21,0,1,1-.47-2.36l3.67-.73-.14-.7-3.67.73a1.86,1.86,0,0,0-1.5,2.26A1.87,1.87,0,0,0,3,49.68Z"/></g><g id="_Group_3" data-name="&lt;Group&gt;"><polygon class="cls-1" points="8.25 53.62 4.24 55.09 7.4 51.28 7.12 50.53 1.93 52.43 2.17 53.1 6.19 51.64 3.03 55.44 3.3 56.19 8.5 54.3 8.25 53.62"/></g><g id="_Group_4" data-name="&lt;Group&gt;"><rect class="cls-1" x="4.22" y="57.07" width="5.53" height="0.74" transform="translate(-25.05 9.25) rotate(-26.69)"/></g><g id="_Group_5" data-name="&lt;Group&gt;"><polygon class="cls-1" points="12.06 60.62 7.63 61.77 10.51 58.21 10.09 57.57 6.49 62.2 6.78 62.63 12.47 61.26 12.06 60.62"/></g><g id="_Group_6" data-name="&lt;Group&gt;"><polygon class="cls-1" points="11.28 64.67 12.85 66.47 13.34 66.05 11.77 64.25 13.13 63.06 14.7 64.86 15.19 64.44 13.15 62.09 8.98 65.72 11.02 68.06 11.51 67.64 9.94 65.84 11.28 64.67"/></g><g id="_Group_7" data-name="&lt;Group&gt;"><path class="cls-1" d="M17.76,66.78l-1.49-1.25L12.7,69.76l.55.46,1.14-1.35.87.73L15,71.66l.63.53L15.92,70a1.89,1.89,0,0,0,1.84-3.22ZM17.44,69a1.17,1.17,0,0,1-1.69.18l-.94-.79,1.59-1.88.94.79A1.17,1.17,0,0,1,17.44,69Z"/></g><g id="_Group_8" data-name="&lt;Group&gt;"><path class="cls-1" d="M21.74,69.45a1.54,1.54,0,0,0-2.25.46c-.54.9.05,1.6.72,2.35.35.39.73.84.4,1.39a1,1,0,0,1-1.43.26,1.17,1.17,0,0,1-.44-1.7l-.62-.37a1.81,1.81,0,0,0,.7,2.61A1.67,1.67,0,0,0,21.25,74c.56-.94-.08-1.69-.71-2.41-.37-.42-.7-.84-.4-1.33A.87.87,0,0,1,21.41,70a1,1,0,0,1,.36,1.42l.62.37A1.65,1.65,0,0,0,21.74,69.45Z"/></g><g id="_Group_9" data-name="&lt;Group&gt;"><rect class="cls-1" x="21.16" y="73.44" width="5.53" height="0.74" transform="translate(-53.34 66.68) rotate(-66.77)"/></g><g id="_Group_10" data-name="&lt;Group&gt;"><polygon class="cls-1" points="29.83 72.87 26.39 71.87 26.21 72.49 27.58 72.89 26.21 77.58 26.9 77.78 28.27 73.09 29.65 73.5 29.83 72.87"/></g><g id="_Group_11" data-name="&lt;Group&gt;"><path class="cls-1" d="M31.79,73.17,29.16,78.4l.75.1.4-.8,2.22.3.18.88.75.1-1.15-5.74Zm-1.18,3.91,1.29-2.7.5,2.95Z"/></g><g id="_Group_12" data-name="&lt;Group&gt;"><path class="cls-1" d="M36.9,75.74c-.54-.15-1-.32-1.06-.9s.38-.86,1-.88a1,1,0,0,1,1.07,1l.72,0a1.65,1.65,0,0,0-1.83-1.62,1.54,1.54,0,0,0-1.64,1.61c0,1.05.91,1.32,1.88,1.58.51.14,1.06.31,1.09,1s-.42,1-1.06,1a1.17,1.17,0,0,1-1.3-1.19l-.72,0a1.81,1.81,0,0,0,2,1.81,1.67,1.67,0,0,0,1.78-1.71C38.76,76.27,37.82,76,36.9,75.74Z"/></g><g id="_Group_13" data-name="&lt;Group&gt;"><polygon class="cls-1" points="45.43 76.27 42.72 72.58 42 72.81 45.55 77.47 46.04 77.31 46.17 71.46 45.45 71.69 45.43 76.27"/></g><g id="_Group_14" data-name="&lt;Group&gt;"><rect class="cls-1" x="48.29" y="70.52" width="0.74" height="5.53" transform="translate(-26.82 28.11) rotate(-25.52)"/></g><g id="_Group_15" data-name="&lt;Group&gt;"><polygon class="cls-1" points="52.56 73.58 49.98 69.43 49.37 69.81 52.29 74.51 54.44 73.17 54.09 72.62 52.56 73.58"/></g><g id="_Group_16" data-name="&lt;Group&gt;"><polygon class="cls-1" points="54.95 65.69 57.74 68.93 53.07 67.31 52.46 67.83 56.06 72.03 56.61 71.56 53.82 68.31 58.5 69.94 59.1 69.42 55.5 65.22 54.95 65.69"/></g><g id="_Group_17" data-name="&lt;Group&gt;"><polygon class="cls-1" points="60.84 66.6 59.48 65.46 61.02 63.63 60.52 63.21 58.98 65.04 57.6 63.88 59.13 62.05 58.64 61.63 56.64 64.01 60.87 67.57 62.87 65.19 62.38 64.78 60.84 66.6"/></g><g id="_Group_18" data-name="&lt;Group&gt;"><polygon class="cls-1" points="61.27 57.59 64.92 59.82 59.98 59.72 59.56 60.4 64.28 63.28 64.66 62.67 61.01 60.44 65.95 60.54 66.37 59.86 61.65 56.98 61.27 57.59"/></g><g id="_Group_19" data-name="&lt;Group&gt;"><path class="cls-1" d="M67.44,53.79c-1-.42-1.66.31-2.29,1-.37.43-.73.81-1.26.58a.87.87,0,0,1-.4-1.24,1,1,0,0,1,1.36-.55l.28-.66a1.65,1.65,0,0,0-2.24,1,1.54,1.54,0,0,0,.76,2.16c1,.41,1.58-.27,2.23-1,.34-.4.73-.83,1.32-.58a1,1,0,0,1,.45,1.38,1.17,1.17,0,0,1-1.63.67l-.28.66a1.81,1.81,0,0,0,2.49-1.06A1.67,1.67,0,0,0,67.44,53.79Z"/></g><g id="_Group_20" data-name="&lt;Group&gt;"><rect class="cls-1" x="66.57" y="48.45" width="0.74" height="5.53" transform="translate(-1.36 100.62) rotate(-73.3)"/></g><g id="_Group_21" data-name="&lt;Group&gt;"><path class="cls-1" d="M69.48,45.65c-1.08-.21-1.56.65-2,1.49-.27.49-.55.94-1.12.83a.87.87,0,0,1-.65-1.13A1,1,0,0,1,66.92,46l.13-.71a1.64,1.64,0,0,0-2,1.41,1.54,1.54,0,0,0,1.19,2c1,.2,1.49-.59,2-1.47.25-.47.54-1,1.18-.85a1,1,0,0,1,.73,1.26,1.17,1.17,0,0,1-1.45,1l-.13.71a1.81,1.81,0,0,0,2.22-1.55A1.67,1.67,0,0,0,69.48,45.65Z"/></g><g id="_Group_22" data-name="&lt;Group&gt;"><path class="cls-1" d="M29.64,54.47A.26.26,0,1,0,29.8,54,.26.26,0,1,0,29.64,54.47Z"/></g><g id="_Group_23" data-name="&lt;Group&gt;"><path class="cls-1" d="M55.93,43.67V21.74l-40.71,0c0,8.84-.11,17.8-.06,26.6H39.22c.29-1.59,2.33-3.46,1.35-5.25L39.4,41.71a5.82,5.82,0,0,0,1-.38l1.29,1.27a4.07,4.07,0,0,0,.45,1.26,11.29,11.29,0,0,0-1.21,3.24c-.42.1-.61.44-.37,1.23h1.34a7.49,7.49,0,0,1,1-2.45,3,3,0,0,0,0-2.79c-1-.77-1.77-1.59-2.79-2.47-.12,0-.23-.13-.35-.1s.18.42.32.48c-1.87.79-3.71.55-5.66.32a3,3,0,0,1,.15-1.26,2.74,2.74,0,0,1,.55,1,7.16,7.16,0,0,0,.79-1.18l1.18,1.21a10.15,10.15,0,0,1,.51-2.76,19.35,19.35,0,0,0,2.57.42c.12.48-.09,1.29.35,1.29s.22-1,.19-1.29a10.41,10.41,0,0,0,1.37,0c.1.45,0,1.2.41,1.18s.18-.86.16-1.23a6.83,6.83,0,0,0,1.24-.2,4.09,4.09,0,0,0,.6,4.48l-1.18,4.09c-.41.13-.48.51-.22,1.22H55.91C55.91,47,55.93,45.18,55.93,43.67ZM33.55,24.5l.21-1.23.32,1.26,6.25-.2,1.75.48-1.72.44-6.23,0-.18,1.28-.35-1.18h-.22a1,1,0,0,0-.07-.83ZM30.22,37.6a4.87,4.87,0,0,1,2.34-.39,3.09,3.09,0,0,1,.09.48,9.4,9.4,0,0,0-2.67.51A1.25,1.25,0,0,1,30.22,37.6Zm-.15-2.1a9.45,9.45,0,0,1,3.66-1.85c.1,0,.13.07.23.07a8.55,8.55,0,0,0-3.79,3.07C30.12,36.35,30.12,35.9,30.07,35.49ZM30.53,37A7.28,7.28,0,0,1,34,34.11c-.06.48.15.7.45,1l-1.12,1.12-.73.54A9,9,0,0,0,30.53,37Zm5.21-7.78a2.5,2.5,0,0,0,.16-2.8,3,3,0,0,1,1.69.06,3.13,3.13,0,0,1-.47,2.25l.32.48c-.31.06-.83.13-1.24.19a6.23,6.23,0,0,0,.1,1.3,5.9,5.9,0,0,1-1.12.2A2.92,2.92,0,0,1,35.74,29.23Zm-.15-.47a2.17,2.17,0,0,1-.51-1.71c0-.2.2-.51.44-.48C35.94,26.78,36,28.49,35.59,28.76Zm.8,2.31a11.46,11.46,0,0,0,.41,1.62c-.31.1-.93.35-1.37.45a6.82,6.82,0,0,1-.22-1.83C35.65,31.25,36,31.17,36.39,31.07Zm.58,2a5.34,5.34,0,0,0,.29.55,13.92,13.92,0,0,0-2.47,1.26c-.26-.26-.6-.76-.21-.95Zm-3.56,3.65,1.14.86a.3.3,0,0,1,0,.16L33,37.64a5.18,5.18,0,0,1-.07-.58A2.76,2.76,0,0,1,33.42,36.73Zm.32-.26A9,9,0,0,1,37.39,34a7.29,7.29,0,0,0,.82,1.08c-.13.28-.48.53-1.18.71-.85.44-1.88,1.39-2.22,1.56Zm2.9-6.76,3.28-.5c.45,1.2.67,5-.66,6.1C37.81,34.57,36.7,31.7,36.64,29.71ZM32.57,24.5a.64.64,0,0,1,.47.66.89.89,0,0,1-.28.54c0,.54.16,2,.22,2.86l2.2.89a2.79,2.79,0,0,0-.32,1.08L32,29.27c0-1.21,0-2.42.09-3.61A.64.64,0,0,1,32.57,24.5Zm-1.52.39a.25.25,0,0,1,.35,0,.33.33,0,0,1,0,.38.24.24,0,0,1-.37,0C30.95,25.16,31,25,31.05,24.9Zm1,6.86a5.59,5.59,0,0,1,1.33,1.56,3.72,3.72,0,0,0-.58.16,4.54,4.54,0,0,0-2.18-2l.15.36a4,4,0,0,1,1.59,1.74,8.68,8.68,0,0,0-2.47,1.5c.07-.42-.1-.86.09-1.37.32-.82.45-1.69-.5-2.28a2.22,2.22,0,0,0-.7-.17c0-.26,0-.55-.07-.8A5.55,5.55,0,0,1,32.06,31.76Zm-2.5,2.61-.45,0-.28-2.58a1.1,1.1,0,0,1,1,.63C30.06,32.82,29.5,33.87,29.56,34.37Zm-.79,1.42a.89.89,0,0,1-.9-.83,4.93,4.93,0,0,1,1.68-.19C29.64,35.36,29.35,35.79,28.78,35.79Zm0-1.43c-.22,0-.66.12-1,.19l-.06-.06-.58-2.41a2.36,2.36,0,0,1,1.27-.38Zm-1.63-4.29a1,1,0,0,1,.71.5l.47,0a6.69,6.69,0,0,1,.09.76,3.08,3.08,0,0,0-1.34.42l-.22-.45c-.31-.5-.15-.39-.39-.67a1.78,1.78,0,0,1,.83.35C27.23,30.6,27.17,30.34,27.14,30.06ZM23.62,41.35A10.22,10.22,0,0,1,24,39.73,15,15,0,0,1,27,38a13.37,13.37,0,0,1,2.56.13,5.64,5.64,0,0,0-.13.8c-.77-.06-1.52-.12-2.33-.12a7.67,7.67,0,0,0-2.41,1.31,2.6,2.6,0,0,0,.13,1.2c-.29,0-.85,0-1.2,0h0Zm1.94.67a1.38,1.38,0,0,0,0,.93,9.18,9.18,0,0,1-.93.1A2.79,2.79,0,0,1,25,41.71c.56-.57,1.27-1.21,1.78-1.69a4.24,4.24,0,0,1,.7-.64l3.2-.22v-.1a1.72,1.72,0,0,0-.82-.1l0-.36A7.78,7.78,0,0,1,32.66,38a19,19,0,0,1-.1,2.58c-1.17.22-3.33-.47-4.68-.44ZM34,40.76a2.64,2.64,0,0,0,0,.95c0,.31-.6.38-1,.45a9.17,9.17,0,0,0-1.74.73,1.55,1.55,0,0,1,.8-1.14,2.68,2.68,0,0,0,.67-.42A11.71,11.71,0,0,0,33.08,38l1.5.1C34.7,39.11,34.13,39.92,34,40.76Zm3.49-3.5a6.3,6.3,0,0,0-.77,2.9l-.95-.95c-.16.29-.38.77-.6,1.1-.1-.19-.32-.5-.48-.74a3.5,3.5,0,0,0,.19-1.82,12.6,12.6,0,0,1,2.23-1.58c.74-.26,1.24-.51,1.39-.83a6,6,0,0,0,.51.39,4.13,4.13,0,0,1-2.35,1.43A1.6,1.6,0,0,0,37.5,37.26Zm.22.64a3.63,3.63,0,0,1,.34-.8,3.85,3.85,0,0,0,1.11-.77A3.57,3.57,0,0,1,40,38.25,10.73,10.73,0,0,1,37.72,37.9Zm2.8.36a6.67,6.67,0,0,0-1-2.39,1.55,1.55,0,0,1,1.42.48,3.75,3.75,0,0,1,.93,1.93C41.65,38.27,40.88,38.3,40.52,38.27Zm6.9,1.28a1.61,1.61,0,0,1,.39.9,1.65,1.65,0,0,0-1-.32,1.66,1.66,0,0,1,.1,1v0a3.32,3.32,0,0,0-.6-.7c-.57-.61-.37-1.58,0-2.48,0-.38-.19-.74-.61-.74-1.1.17-2.06,1.1-3.15,1-.38-.79-.6-2-1.65-2.5a4,4,0,0,1,2.9,1.72c.95-.82,2.09-1.8,3.45-1.42a1.25,1.25,0,0,1,.86,1c.09.83-.42,1.9.45,2.63C48.2,39.93,47.78,39.43,47.43,39.55Z"/></g><g id="_Group_24" data-name="&lt;Group&gt;"><path class="cls-1" d="M54.58,49.13H15.17a21.2,21.2,0,0,0,4.94,13c8.07,9.59,23.89,9.44,31.62-.76a20.12,20.12,0,0,0,4.18-12.23h-.77a20.11,20.11,0,0,1-1.75,7.69,1.36,1.36,0,0,1-.55.32c-.82.34-1.26.31-2.12.58-.18.09-.41.16-.45.29A7.63,7.63,0,0,0,52,57.78c-.26.16-.45.32-.63.41A51.3,51.3,0,0,1,45,61.34a10.82,10.82,0,0,0-.55-5.9,15.77,15.77,0,0,0,1.91-.39,4.65,4.65,0,0,1,.95,2.73,1.65,1.65,0,0,0,.34-1.15,6.14,6.14,0,0,0-.77-1.82c.52-.23,1.26-.64,1.81-.85s1.37-.38,1.69-.54c-.21-.16-.79,0-1.12,0A18.65,18.65,0,0,1,54,51.29c-.07-.28-.9,0-1.18,0A5.75,5.75,0,0,0,54.58,49.13ZM28.64,53.8l0,10.49a1.82,1.82,0,0,0-.38-.34l0-10.51c0-.31.06-.51.26-.53.93-.09,2.22-.22,3.28-.38s2.42-.28,3.55-.44c.09-.1.06-.2-.06-.31l-7,.82c-.19.09-.36.25-.36.32s0,.67,0,.82c0,3.49,0,6.77,0,10.06l-.41-.09c-.06-3.28,0-7.11,0-10.65a2.58,2.58,0,0,1,0-.69c.06-.13.41-.13.41-.13,2.44-.25,4.95-.6,7.4-.9.12,0,.1-.19,0-.28-2.41.26-5.27.48-7.6.76A.87.87,0,0,0,27,52a1.2,1.2,0,0,0-.1.61c0,3.63.13,7.39,0,11.06h-.34c0-3.75-.06-8.48-.06-11.69a.59.59,0,0,1,.61-.67c3-.26,4.89-.35,7.33-.66.71,0,1.34.07,1.68.6a.75.75,0,0,1-.37,1.1,3.25,3.25,0,0,1-.95.22l-5.74.66A.6.6,0,0,0,28.64,53.8Zm6-.7v1.53l-.34,0a1.43,1.43,0,0,1-1-1.4C33.69,53.15,34.22,53.14,34.66,53.1Zm-5.66,1c0-.26,0-.48.34-.51l1.25-.09c0,1.05-.42,1.56-1.59,1.56C29,54.75,29,54.47,29,54.09Zm.53,11.24a.47.47,0,0,1-.45-.32v-1.4a1.71,1.71,0,0,1,1.08.35,1.62,1.62,0,0,1,.56,1.29A11.19,11.19,0,0,1,29.52,65.33Zm1.58-.12a2,2,0,0,0-.71-1.59,2.08,2.08,0,0,0-1.31-.35L29,55.4a1.7,1.7,0,0,0,1.94-2l2-.22A1.75,1.75,0,0,0,34.67,55l.22,7.72a1.87,1.87,0,0,0-1.6,2.2Zm2.6-.34a1.41,1.41,0,0,1,1.17-1.68s.07,1.5.07,1.53A11.07,11.07,0,0,1,33.69,64.88ZM35.08,53a1.87,1.87,0,0,0,1.21-.54.65.65,0,0,1-.29.82,2.41,2.41,0,0,1-.93.34C35.07,53.51,35,53,35.08,53Zm0,1a2.19,2.19,0,0,0,1.23-.48v2.26c-.13.47-.64.58-1.23.74Zm0,2.9a2.55,2.55,0,0,0,1.23-.52.44.44,0,0,1,0,.58,2.27,2.27,0,0,1-1.2.44A1.85,1.85,0,0,1,35.13,56.93Zm0,.89a2.68,2.68,0,0,0,1.1-.32l0,2-1.07.6Zm.13,3.49c.13,0,.19,0,.26.2s.31.16.54.26a.6.6,0,0,0,.45.23c0,.26,0,1,0,1.27s-1,.58-1.23.57Zm1.17,3a2.68,2.68,0,0,1-1.11.35v-.38a2.66,2.66,0,0,0,1.33-.54A.5.5,0,0,1,36.45,64.35Zm8.16-3c-.06.26-.21.25-.34.17a4.65,4.65,0,0,1-.71-2.35,3.36,3.36,0,0,1,1.12-.74A10.31,10.31,0,0,1,44.61,61.36Zm0-3.3c-1.94.79-3.26,3-5.55,3.34a8.55,8.55,0,0,0,1.26-.77c0-.1,0-.13-.15-.13a9.43,9.43,0,0,1-2.1,1l-1.31.26c-.07,0-.21,0-.28-.13.32-.18,1.33-.47,1.85-.73a8.42,8.42,0,0,0,1.43-.85c0-.09,0-.22-.18-.18a14.6,14.6,0,0,1-1.34.7,13.18,13.18,0,0,1-2,.74c-.2,0-.42,0-.47-.12s0-.09.22-.2,1.15-.44,1.74-.74a9.76,9.76,0,0,0,1.49-.89c0-.12,0-.19-.18-.13a17.21,17.21,0,0,1-3.28,1.52.88.88,0,0,1-.54,0V60.5L37,59.61a8.11,8.11,0,0,0,1.43-.89l1.3-1.14v-.19a5.08,5.08,0,0,1-2.92,0v-.13c.5-.13,1-.2,1.52-.34.82-.22,1.58-.6,2.48-.8S43,56,44.12,55.84A5.27,5.27,0,0,1,44.63,58.06Z"/></g><g id="_Group_25" data-name="&lt;Group&gt;"><path class="cls-1" d="M29.87,64.29a.31.31,0,0,0-.23.58A.31.31,0,0,0,29.87,64.29Z"/></g><g id="_Group_26" data-name="&lt;Group&gt;"><path class="cls-1" d="M33.6,58.69c0-.57-.38-.69-.87-.71a1,1,0,0,0-.23-.74c-.61-.29-1.37,0-1.18.83-.34.06-1,.28-.92.85s.38.73,1,.7c0,.48.34,1,.82.95s.58-.61.58-1.18C33.21,59.38,33.66,59.17,33.6,58.69Zm-1.12.45c0,.42.15,1-.26,1-.58.06-.32-.66-.48-.89s-.83.16-1-.29c.06-.58.57-.52.93-.6,0-.42-.28-.77.34-.92.5,0,.31.47.35.77.32,0,.88-.06.89.42S32.82,59,32.47,59.14Z"/></g><g id="_Group_27" data-name="&lt;Group&gt;"><path class="cls-1" d="M39.37,33.84c-.06-.33-.15-.71-.19-1,.32,0,.52-.06.73-.1l-.09-.54c-.26.07-.32.06-.69.16-.07-.33-.12-.61-.19-1l.73-.07c0-.16,0-.34,0-.51-.18,0-.57.09-.77.16a5.7,5.7,0,0,1-.13-1.07c-.12,0-.45.06-.55.1a7.23,7.23,0,0,1,.22,1c-.22,0-.44.07-.77.1l.07.48c.26,0,.66-.15.79-.15.06.41.12.69.15,1a4.62,4.62,0,0,1-.76.12l.12.54a5.14,5.14,0,0,0,.71-.19,9,9,0,0,1,0,1.07A3.49,3.49,0,0,0,39.37,33.84Z"/></g><g id="_Group_28" data-name="&lt;Group&gt;"><path class="cls-1" d="M34.49,64a.28.28,0,1,0-.28.48C34.58,64.63,34.78,64.1,34.49,64Z"/></g><g id="_Group_29" data-name="&lt;Group&gt;"><path class="cls-1" d="M28.21,32.87a.36.36,0,0,0-.07-.41c-.13,0-.18-.1-.31,0a.51.51,0,0,0,0,.44C28,33,28.18,33,28.21,32.87Z"/></g><g id="_Group_30" data-name="&lt;Group&gt;"><path class="cls-1" d="M34,54a.24.24,0,0,0,.13-.47C33.81,53.42,33.72,54,34,54Z"/></g><g id="_Group_31" data-name="&lt;Group&gt;"><polygon class="cls-1" points="5.88 32.62 0.77 29.75 0.64 30.5 4.66 32.67 0.13 33.32 0 34.07 5.78 33.13 5.88 32.62"/></g><g id="_Group_32" data-name="&lt;Group&gt;"><rect class="cls-1" x="3.64" y="25.71" width="0.74" height="5.53" transform="translate(-24.47 24.53) rotate(-74.09)"/></g><g id="_Group_33" data-name="&lt;Group&gt;"><polygon class="cls-1" points="8.24 24.74 7.64 24.51 6.99 26.2 2.43 24.44 2.17 25.11 7.33 27.1 8.24 24.74"/></g><g id="_Group_34" data-name="&lt;Group&gt;"><polygon class="cls-1" points="9.01 23.11 5.25 21.07 10.19 20.92 10.57 20.22 5.71 17.58 5.37 18.22 9.13 20.25 4.18 20.41 3.8 21.11 8.67 23.74 9.01 23.11"/></g><g id="_Group_35" data-name="&lt;Group&gt;"><rect class="cls-1" x="9.12" y="14.16" width="0.74" height="5.53" transform="translate(-9.81 14.93) rotate(-54.82)"/></g><g id="_Group_36" data-name="&lt;Group&gt;"><path class="cls-1" d="M13.1,16.71l-.44-.77,1.49-1.68.83.34.5-.57L10.06,11.8l-.35.39,2.88,5.09Zm-2.33-3.94L13.5,14l-1.19,1.35Z"/></g><g id="_Group_37" data-name="&lt;Group&gt;"><path class="cls-1" d="M17.51,12.43a1.87,1.87,0,0,0,.24-2.71l-2.4-2.86-.55.46,2.4,2.86a1.21,1.21,0,1,1-1.85,1.55L13,8.86l-.55.46,2.4,2.86A1.86,1.86,0,0,0,17.51,12.43Z"/></g><g id="_Group_38" data-name="&lt;Group&gt;"><path class="cls-1" d="M20.24,7.33c.52-.12,1.08-.24,1.41.32A1,1,0,0,1,21.2,9a1.17,1.17,0,0,1-1.71-.43L18.87,9a1.81,1.81,0,0,0,2.63.64,1.67,1.67,0,0,0,.75-2.36c-.56-.94-1.52-.74-2.45-.53-.55.13-1.07.21-1.36-.28a.87.87,0,0,1,.42-1.23,1,1,0,0,1,1.42.37l.62-.37a1.64,1.64,0,0,0-2.38-.55,1.54,1.54,0,0,0-.67,2.19C18.38,7.74,19.27,7.56,20.24,7.33Z"/></g><g id="_Group_39" data-name="&lt;Group&gt;"><path class="cls-1" d="M28.3,6.69a1.87,1.87,0,0,0,1.35-2.36l-1-3.6L28,.92l1,3.6a1.21,1.21,0,1,1-2.32.64l-1-3.6-.69.19,1,3.6A1.87,1.87,0,0,0,28.3,6.69Z"/></g><g id="_Group_40" data-name="&lt;Group&gt;"><polygon class="cls-1" points="32.01 5.78 31.66 1.52 34.49 5.58 35.29 5.51 34.83 0 34.12 0.06 34.47 4.32 31.64 0.26 30.84 0.33 31.3 5.84 32.01 5.78"/></g><g id="_Group_41" data-name="&lt;Group&gt;"><rect class="cls-1" x="34.59" y="2.5" width="5.53" height="0.74" transform="translate(32.25 39.98) rotate(-86.57)"/></g><g id="_Group_42" data-name="&lt;Group&gt;"><polygon class="cls-1" points="40.96 6.13 43.9 1.06 43.15 0.92 40.93 4.91 40.34 0.38 39.59 0.23 40.45 6.03 40.96 6.13"/></g><g id="_Group_43" data-name="&lt;Group&gt;"><polygon class="cls-1" points="46.48 7.83 46.71 7.22 44.47 6.39 45.09 4.73 47.33 5.55 47.55 4.95 45.31 4.12 45.94 2.42 48.18 3.25 48.4 2.64 45.49 1.56 43.57 6.75 46.48 7.83"/></g><g id="_Group_44" data-name="&lt;Group&gt;"><path class="cls-1" d="M48.26,8.7l.87-1.53,1,.56.08,2.07.71.41L50.84,8a1.83,1.83,0,0,0,1.94-.93,1.84,1.84,0,0,0-.72-2.57l-1.69-1L47.64,8.35Zm2.41-4.24,1.06.61a1.17,1.17,0,0,1,.41,1.65,1.17,1.17,0,0,1-1.63.49L49.46,6.6Z"/></g><g id="_Group_45" data-name="&lt;Group&gt;"><path class="cls-1" d="M52.72,9.33A1.81,1.81,0,0,0,53.05,12a1.67,1.67,0,0,0,2.47-.12c.69-.86.16-1.69-.37-2.48-.31-.47-.57-.93-.21-1.38a.87.87,0,0,1,1.3,0,1,1,0,0,1,.15,1.46L57,9.9a1.64,1.64,0,0,0-.32-2.42,1.54,1.54,0,0,0-2.29.14c-.66.82-.17,1.59.38,2.42.3.44.6.93.2,1.43a1,1,0,0,1-1.45.05,1.17,1.17,0,0,1-.2-1.75Z"/></g><g id="_Group_46" data-name="&lt;Group&gt;"><rect class="cls-1" x="55.05" y="12.05" width="5.53" height="0.74" transform="translate(7.88 44.11) rotate(-44.52)"/></g><g id="_Group_47" data-name="&lt;Group&gt;"><polygon class="cls-1" points="57.85 16.6 58.3 17.17 62.11 14.12 63.01 15.24 63.52 14.83 61.27 12.03 60.77 12.44 61.66 13.55 57.85 16.6"/></g><g id="_Group_48" data-name="&lt;Group&gt;"><polygon class="cls-1" points="61.39 21.8 61.94 21.46 60.7 19.42 62.22 18.5 63.46 20.54 64.01 20.2 62.77 18.16 64.32 17.22 65.56 19.26 66.11 18.92 64.5 16.27 59.77 19.14 61.39 21.8"/></g><g id="_Group_49" data-name="&lt;Group&gt;"><polygon class="cls-1" points="62.46 24.01 62.76 24.67 67.21 22.67 67.8 23.98 68.39 23.72 66.93 20.44 66.33 20.71 66.92 22.02 62.46 24.01"/></g><g id="_Group_50" data-name="&lt;Group&gt;"><path class="cls-1" d="M63.63,26.8l.89,0,.68,2.14-.72.54.23.72,4.69-3.5-.16-.5-5.85-.13Zm4.58,0-2.45,1.72-.55-1.72Z"/></g><g id="_Group_51" data-name="&lt;Group&gt;"><path class="cls-1" d="M68.95,30.31c-1,.19-1.17,1.09-1.3,2.08-.06.52-.15,1.1-.79,1.21a1,1,0,0,1-1.13-.91,1.17,1.17,0,0,1,1-1.45l-.13-.71a1.81,1.81,0,0,0-1.51,2.24A1.67,1.67,0,0,0,67,34.3c1.08-.2,1.22-1.17,1.35-2.12.07-.56.17-1.08.74-1.18a.87.87,0,0,1,1,.82A1,1,0,0,1,69.3,33l.13.71a1.65,1.65,0,0,0,1.35-2A1.54,1.54,0,0,0,68.95,30.31Z"/></g><g id="_Group_52" data-name="&lt;Group&gt;"><path class="cls-1" d="M29.67,17.6V13H29.1c0,.55-.16.76-1,.76v.48h.93V17.6h.62Z"/></g><g id="_Group_53" data-name="&lt;Group&gt;"><polygon class="cls-1" points="36.11 17.6 36.75 17.6 38.8 12.99 35.94 12.99 35.94 13.53 37.94 13.53 36.11 17.6"/></g><g id="_Group_54" data-name="&lt;Group&gt;"><path class="cls-1" d="M41.29,17.6l1.37-2.2a1.75,1.75,0,0,0,.28-.93,1.58,1.58,0,1,0-1.57,1.58.49.49,0,0,0,.28-.07L40.6,17.6h.69Zm.07-2.09a1,1,0,1,1,1-1A1,1,0,0,1,41.36,15.51Z"/></g><g id="_Group_55" data-name="&lt;Group&gt;"><circle class="cls-1" cx="25.33" cy="15.37" r="0.75"/></g><g id="_Group_56" data-name="&lt;Group&gt;"><circle class="cls-1" cx="45.73" cy="15.4" r="0.75"/></g><g id="_Group_57" data-name="&lt;Group&gt;"><circle class="cls-1" cx="3.01" cy="39.67" r="0.75"/></g><g id="_Group_58" data-name="&lt;Group&gt;"><circle class="cls-1" cx="68.46" cy="39.67" r="0.75"/></g><path class="cls-1" d="M33.4,14.44a1.28,1.28,0,0,0-1.07.47v-1.4h2.22V13H31.78v2.55h.57a1,1,0,0,1,1.9.46,1,1,0,0,1-1,1.07.83.83,0,0,1-.9-.62h-.56a1.35,1.35,0,0,0,1.45,1.16A1.55,1.55,0,0,0,34.84,16,1.38,1.38,0,0,0,33.4,14.44Z"/></g><g id="_Group_59" data-name="&lt;Group&gt;"><rect class="cls-1" x="84.52" y="0.45" width="1" height="78.65"/></g><g id="_Group_60" data-name="&lt;Group&gt;"><path class="cls-1" d="M98,21.66h3.19l2.66,9.05,2.66-9.05h3.19l-4.31,12.83h-3.08Z"/><path class="cls-1" d="M110.28,23.16a1.73,1.73,0,1,1,1.72,1.7A1.69,1.69,0,0,1,110.28,23.16Zm.31,2.49h2.8v8.83h-2.8Z"/><path class="cls-1" d="M115.7,21.66h2.8V34.49h-2.8Z"/><path class="cls-1" d="M120.81,25.65h2.8v1.28a3,3,0,0,1,2.86-1.52c2.14,0,3.23,1.21,3.23,3.61v5.46h-2.82V29.94c0-1.48-.42-2.16-1.56-2.16s-1.71.73-1.71,2.09v4.62h-2.8V25.65Z"/><path class="cls-1" d="M131.62,23.16a1.73,1.73,0,1,1,1.72,1.7A1.69,1.69,0,0,1,131.62,23.16Zm.31,2.49h2.8v8.83h-2.8Z"/><path class="cls-1" d="M136.41,30.07c0-2.64,1.63-4.65,4.2-4.65a3,3,0,0,1,2.77,1.5V25.65h2.79v8.83h-2.79V33.24a3.17,3.17,0,0,1-2.8,1.48C137.93,34.73,136.41,32.73,136.41,30.07Zm7.07,0a2.12,2.12,0,1,0-4.21,0,2.11,2.11,0,0,0,2.11,2.33A2.09,2.09,0,0,0,143.48,30.07Z"/><path class="cls-1" d="M148.39,31.11V25.65h2.84v4.84c0,1.21.4,1.87,1.47,1.87s1.71-.77,1.71-2V25.65h2.79v8.83H154.4V33.22a2.89,2.89,0,0,1-2.75,1.5C149.53,34.73,148.39,33.4,148.39,31.11Z"/><path class="cls-1" d="M158.87,31.83h2.79c0,.6.59,1,1.45,1,.61,0,1-.31,1-.83a.72.72,0,0,0-.64-.75l-2.16-.55a2.55,2.55,0,0,1-2.22-2.55c0-1.65,1.45-2.8,3.77-2.8,2.58,0,3.94,1.08,3.94,2.75h-2.77c0-.62-.46-1-1.21-1s-1,.29-1,.73.27.66.75.79l2.09.57a2.58,2.58,0,0,1,2.24,2.46c0,1.81-1.45,3-3.87,3C160.47,34.76,158.87,33.5,158.87,31.83Z"/><path class="cls-1" d="M99.1,53.1V47.64h2.84v4.84c0,1.21.4,1.87,1.47,1.87s1.7-.77,1.7-2V47.64h2.79v8.83h-2.79V55.21a2.89,2.89,0,0,1-2.75,1.5C100.24,56.71,99.1,55.39,99.1,53.1Z"/><path class="cls-1" d="M110.22,47.64H113v1.28a3,3,0,0,1,2.86-1.52c2.14,0,3.23,1.21,3.23,3.61v5.46h-2.82V51.93c0-1.48-.42-2.16-1.56-2.16s-1.7.73-1.7,2.09v4.62h-2.8Z"/><path class="cls-1" d="M121,45.15a1.73,1.73,0,1,1,1.72,1.7A1.69,1.69,0,0,1,121,45.15Zm.31,2.49h2.8v8.83h-2.8Z"/><path class="cls-1" d="M125.25,47.64h3.1l2,5.55,2-5.55h3.12l-3.83,8.83h-2.53Z"/><path class="cls-1" d="M144.73,52.83h-6.52a1.84,1.84,0,0,0,2.07,1.81q1.29,0,1.65-.82h2.75c-.27,1.74-2.05,2.93-4.4,2.93-3,0-4.86-1.74-4.86-4.69a4.4,4.4,0,0,1,4.76-4.67c2.75,0,4.62,1.72,4.62,4.21A9.78,9.78,0,0,1,144.73,52.83ZM142,51.09a1.69,1.69,0,0,0-1.87-1.83,1.8,1.8,0,0,0-2,1.83Z"/><path class="cls-1" d="M146.41,47.64h2.8v1.85a2.47,2.47,0,0,1,2.44-2,2.78,2.78,0,0,1,.73.07v2.6a6.25,6.25,0,0,0-.84-.06c-1.37,0-2.33.83-2.33,3v3.41h-2.8Z"/><path class="cls-1" d="M153.12,53.82h2.79c0,.6.59,1,1.45,1,.6,0,1-.31,1-.83a.72.72,0,0,0-.64-.75l-2.16-.55a2.55,2.55,0,0,1-2.22-2.55c0-1.65,1.45-2.8,3.77-2.8,2.58,0,3.94,1.08,3.94,2.75H158.3c0-.62-.46-1-1.21-1s-1,.29-1,.73.27.66.75.79l2.09.57a2.58,2.58,0,0,1,2.24,2.45c0,1.81-1.45,3-3.87,3C154.71,56.75,153.12,55.48,153.12,53.82Z"/><path class="cls-1" d="M162.59,45.15a1.73,1.73,0,1,1,1.72,1.7A1.69,1.69,0,0,1,162.59,45.15Zm.31,2.49h2.8v8.83h-2.8Z"/><path class="cls-1" d="M173.62,54.24v2.23a11,11,0,0,1-1.87.15c-1.32,0-3.13-.29-3.13-3.24V49.86h-1.39V47.64h1.39V45h2.8v2.62h2v2.22h-2v2.93c0,1.3.53,1.5,1.23,1.5A7.47,7.47,0,0,0,173.62,54.24Z"/><path class="cls-1" d="M183.85,52.83h-6.52a1.84,1.84,0,0,0,2.07,1.81q1.29,0,1.65-.82h2.75c-.27,1.74-2.05,2.93-4.4,2.93-3,0-4.86-1.74-4.86-4.69a4.4,4.4,0,0,1,4.77-4.67c2.75,0,4.62,1.72,4.62,4.21A9.78,9.78,0,0,1,183.85,52.83Zm-2.69-1.74a1.69,1.69,0,0,0-1.87-1.83,1.8,1.8,0,0,0-2,1.83Z"/><path class="cls-1" d="M191.11,54.24v2.23a11,11,0,0,1-1.87.15c-1.32,0-3.13-.29-3.13-3.24V49.86h-1.39V47.64h1.39V45h2.8v2.62h2v2.22h-2v2.93c0,1.3.53,1.5,1.23,1.5A7.48,7.48,0,0,0,191.11,54.24Z"/><path class="cls-1" d="M192,52.06c0-2.64,1.63-4.65,4.2-4.65a3,3,0,0,1,2.77,1.5V47.64h2.79v8.83H199V55.23a3.17,3.17,0,0,1-2.8,1.48C193.54,56.71,192,54.71,192,52.06Zm7.07,0a2.12,2.12,0,1,0-4.21,0A2.11,2.11,0,0,0,197,54.39,2.09,2.09,0,0,0,199.09,52.06Z"/><path class="cls-1" d="M203.45,53.82h2.79c0,.6.59,1,1.45,1,.61,0,1-.31,1-.83a.72.72,0,0,0-.64-.75l-2.16-.55a2.55,2.55,0,0,1-2.22-2.55c0-1.65,1.45-2.8,3.77-2.8,2.58,0,3.94,1.08,3.94,2.75h-2.77c0-.62-.46-1-1.21-1s-1,.29-1,.73.27.66.75.79l2.09.57a2.58,2.58,0,0,1,2.24,2.45c0,1.81-1.45,3-3.87,3C205,56.75,203.45,55.48,203.45,53.82Z"/></g></g></g></svg>